<svg version="1.1" xmlns="http://www.w3.org/2000/svg" xmlns:xlink="http://www.w3.org/1999/xlink" width="502" height="417" viewBox="0,0,502,417"><g transform="translate(19.10517,27.90965)"><g data-paper-data="{&quot;isPaintingLayer&quot;:true}" fill-rule="nonzero" stroke-linejoin="miter" stroke-miterlimit="10" stroke-dasharray="" stroke-dashoffset="0" style="mix-blend-mode: normal"><path d="M-19.10517,389.09035v-417h502v417z" fill="#6dceff" stroke="none" stroke-width="0" stroke-linecap="butt"/><path d="M411.64743,324.12667v-36.50867h14.97239v36.50867z" fill="#614100" stroke="none" stroke-width="0" stroke-linecap="butt"/><path d="M418.49196,294.4903l-21.38913,-20.10578h42.35047z" fill="#614100" stroke="#000000" stroke-width="0.5" stroke-linecap="round"/><path d="M384.90358,277.31251c-0.37985,-2.69769 1.05482,-4.58053 3.69027,-6.4744c1.52504,-1.09591 -1.56048,-7.61196 -0.95907,-9.04498c1.28596,-3.06419 1.03177,-1.58039 1.38378,-4.4111c0.24962,-2.00725 3.10699,-3.12233 4.53548,-4.87059c1.21155,-1.48276 3.71501,-2.4366 6.63229,-2.33571c2.14092,0.07404 4.57633,1.22486 6.52598,0.58369c1.19535,-0.39311 2.47779,-3.42247 4.84322,-4.32151c2.59192,-0.98512 6.27437,0.16586 7.51561,-0.00892c2.48862,-0.35041 4.47201,0.282 6.04373,1.87597c1.57169,1.59394 2.73172,4.14945 4.62966,4.49822c3.65375,0.67144 6.75202,-1.81178 9.67885,-1.88601c1.9346,-0.04907 3.94,1.98908 5.46015,2.98473c2.11538,1.38551 3.86376,2.30098 3.60605,5.98832c-0.11072,1.58416 -2.43627,5.77337 -2.22371,7.28297c0.39797,2.82642 3.95598,3.54708 5.48596,5.9571c1.03715,1.63373 0.45973,4.95017 -0.03542,6.73264c-0.50448,1.81606 -2.13617,4.4504 -4.70317,5.11937c-1.92994,0.50295 -4.68333,-1.04118 -6.24639,0.32144c-2.16433,1.88678 -0.5638,4.24177 -1.03034,6.40145c-0.61918,2.86631 -3.16092,5.43205 -6.19348,6.52677c-1.22793,0.44326 -4.10542,1.06708 -6.60309,-0.08159c-3.09607,-1.42388 -5.89188,-4.727 -7.58963,-4.48795c-1.84622,0.25996 -2.33119,3.29725 -5.20805,4.64287c-2.66539,1.24671 -7.73286,0.82507 -9.34075,0.664c-2.32376,-0.23278 -5.51383,-0.90568 -7.66335,-3.53785c-1.82432,-2.23395 -0.77382,-6.32776 -2.18065,-7.0056c-3.81959,-1.84035 -5.22506,-1.10031 -7.13207,-2.41808c-1.81162,-1.25186 -2.31429,-4.38029 -2.92186,-8.69524z" fill="#83e87c" stroke="#03c300" stroke-width="3" stroke-linecap="butt"/><path d="M411.5267,327.86915v-8.05935h24.73384v8.05935z" fill="#614100" stroke="none" stroke-width="0" stroke-linecap="butt"/><path d="M424.5884,353.43671v-26.95711h11.67215v26.95711z" fill="#614100" stroke="none" stroke-width="0" stroke-linecap="butt"/><path d="M400.17633,327.83826v-8.05935h24.73384v8.05935z" fill="#614100" stroke="none" stroke-width="0" stroke-linecap="butt"/><path d="M400.3464,354.03468v-26.95711h11.67215v26.95711z" fill="#614100" stroke="none" stroke-width="0" stroke-linecap="butt"/></g></g></svg>