<svg version="1.1" xmlns="http://www.w3.org/2000/svg" xmlns:xlink="http://www.w3.org/1999/xlink" width="530.36491" height="407.50965" viewBox="0,0,530.36491,407.50965"><g transform="translate(28.24827,19.07936)"><g data-paper-data="{&quot;isPaintingLayer&quot;:true}" fill="#000000" fill-rule="nonzero" stroke-linejoin="miter" stroke-miterlimit="10" stroke-dasharray="" stroke-dashoffset="0" style="mix-blend-mode: normal"><path d="M-28.24827,384.00765v-394.82819h34.67439v394.8282z" stroke="none" stroke-width="0" stroke-linecap="butt"/><path d="M1.28405,386.2837v-34.50265h478.20057v34.50268z" stroke="none" stroke-width="0" stroke-linecap="butt"/><path d="M0.27337,92.72418v-6.13605h29.35191v6.13605z" stroke="none" stroke-width="0" stroke-linecap="butt"/><path d="M40.94702,133.93236v-5.55094h65.9175v5.55094z" stroke="none" stroke-width="0" stroke-linecap="butt"/><path d="M-5.642,175.45397v-5.55095h65.9175v5.55095z" stroke="none" stroke-width="0" stroke-linecap="butt"/><path d="M105.12431,175.34977v-5.55095h45.69164v5.55095z" stroke="none" stroke-width="0" stroke-linecap="butt"/><path d="M59.4659,218.19703v-5.55094h107.44071c0.85088,0.31312 1.78046,0.48547 2.75412,0.48547c0.25659,0 0.51012,-0.01198 0.75996,-0.03534v5.10081z" stroke="#000000" stroke-width="0.5" stroke-linecap="butt"/><path d="M330.4629,138.21789l2.74748,5.68308l-111.83611,43.60216c-1.04067,0.02473 -2.09358,0.22552 -3.10707,0.62065c-0.2671,0.10413 -0.52508,0.21928 -0.77357,0.34459l-2.52469,-5.22222z" stroke="#000000" stroke-width="0.5" stroke-linecap="butt"/><path d="M228.00637,119.54126l-1.59587,5.3166l-93.95493,-28.20217c-0.65405,-0.52325 -1.4174,-0.93232 -2.26885,-1.18791c-0.2244,-0.06736 -0.44954,-0.12244 -0.67473,-0.16564l1.46645,-4.88546z" stroke="#000000" stroke-width="0.5" stroke-linecap="butt"/><path d="M472.26237,388.43028v-407.50964h29.85427v407.50965z" stroke="none" stroke-width="0" stroke-linecap="butt"/><path d="M328.02955,144.37031v-6.59893h91.725v6.59893z" stroke="#000000" stroke-width="0.5" stroke-linecap="butt"/><path d="M442.09755,34.35505l-25.46357,21.09889l-29.9825,-21.2084z" stroke="#000000" stroke-width="0.5" stroke-linecap="round"/><path d="M270.83574,65.97464v-4.39928h61.36997v4.39928z" stroke="#000000" stroke-width="0.5" stroke-linecap="butt"/><path d="M172.23269,63.71585v-4.39928h27.71547v4.39928z" stroke="#000000" stroke-width="0.5" stroke-linecap="butt"/><path d="M328.61298,192.18578v-6.59892h78.52716v6.59892z" stroke="#000000" stroke-width="0.5" stroke-linecap="butt"/><path d="M144.13646,358.12847l-141.21691,-1.97967v-68.62878z" stroke="#000000" stroke-width="0.5" stroke-linecap="round"/><path d="M411.64743,324.12667v-36.50867h14.13414c-0.01202,0.9656 0.02717,2.04864 0.139,3.30006c0.12441,1.39222 0.06969,3.02469 0.69925,4.23912v28.96948z" stroke="none" stroke-width="0" stroke-linecap="butt"/><path d="M227.87487,352.18542v-66.25821h13.26126v66.25821z" stroke="none" stroke-width="0" stroke-linecap="butt"/><path d="M206.37413,312.67087l0.99766,-5.82762l21.89805,9.20731l-0.99766,5.82762z" stroke="none" stroke-width="0" stroke-linecap="butt"/><path d="M218.89144,316.28611v-3.85077h10.69456v3.85077z" stroke="none" stroke-width="0" stroke-linecap="butt"/><path d="M110.77086,278.17902v-4.70561h73.2058v4.70561z" stroke="none" stroke-width="0" stroke-linecap="butt"/><path d="M418.49195,294.49031l-21.38913,-20.10578h27.72729c0.05889,3.2941 0.49135,6.61471 1.22872,9.8306c-0.14614,0.97213 -0.2541,2.02756 -0.27548,3.28138z" stroke="#000000" stroke-width="0.5" stroke-linecap="round"/><path d="M321.50679,354.19174v-41.02618h28.9469v41.02618z" stroke="#000000" stroke-width="0.5" stroke-linecap="butt"/><path d="M29.37126,255.05743v-5.55094h39.05532c0.30929,0.31312 0.6472,0.48547 1.00113,0.48547c0.09327,0 0.18544,-0.01198 0.27624,-0.03534v5.10081z" stroke="#000000" stroke-width="0.5" stroke-linecap="butt"/><path d="M217.24844,244.94407v-5.55095h129.08287c1.02228,0.31312 2.13909,0.48548 3.30887,0.48548c0.30829,0 0.61289,-0.01197 0.91305,-0.03533v5.10081z" stroke="#000000" stroke-width="0.5" stroke-linecap="butt"/><path d="M240.25344,322.4081l-0.99766,-5.82762l21.89805,-9.20731l0.99766,5.82762z" data-paper-data="{&quot;index&quot;:null}" stroke="none" stroke-width="0" stroke-linecap="butt"/><path d="M238.93961,316.81602v-3.85077h10.69456v3.85077z" data-paper-data="{&quot;index&quot;:null}" stroke="none" stroke-width="0" stroke-linecap="butt"/></g></g></svg>