<svg version="1.1" xmlns="http://www.w3.org/2000/svg" xmlns:xlink="http://www.w3.org/1999/xlink" width="498.81507" height="391.53433" viewBox="0,0,498.81507,391.53433"><g transform="translate(15.33041,20.07934)"><g data-paper-data="{&quot;isPaintingLayer&quot;:true}" fill-rule="nonzero" stroke-linejoin="miter" stroke-miterlimit="10" stroke-dasharray="" stroke-dashoffset="0" style="mix-blend-mode: normal"><path d="M-1.7376,360.50962v-371.33013h8.16375v371.33014z" fill="#676767" stroke="#000000" stroke-width="2" stroke-linecap="butt"/><path d="M1.28409,362.78569v-11.00461h478.20057v11.00462z" fill="#0dc500" stroke="none" stroke-width="0" stroke-linecap="butt"/><path d="M0.27339,92.7242v-6.13605h29.35191v6.13605z" fill="#a13f27" stroke="none" stroke-width="0" stroke-linecap="butt"/><path d="M40.94704,133.93238v-5.55094h65.9175v5.55094z" fill="#a13f27" stroke="none" stroke-width="0" stroke-linecap="butt"/><path d="M-5.64196,175.45401v-5.55095h65.9175v5.55095z" fill="#a13f27" stroke="none" stroke-width="0" stroke-linecap="butt"/><path d="M105.12435,175.3498v-5.55095h45.69164v5.55095z" fill="#a13f27" stroke="none" stroke-width="0" stroke-linecap="butt"/><path d="M59.46594,218.19705v-5.55094h107.44071c0.85088,0.31312 1.78046,0.48547 2.75411,0.48547c0.2566,0 0.51012,-0.01198 0.75996,-0.03534v5.10081z" fill="#a13f27" stroke="none" stroke-width="0" stroke-linecap="butt"/><path d="M330.4629,138.2179l2.74748,5.68308l-111.8361,43.60216c-1.04067,0.02473 -2.09358,0.22552 -3.10707,0.62065c-0.2671,0.10414 -0.52508,0.21928 -0.77357,0.34459l-2.52469,-5.22222z" fill="#0dc500" stroke="none" stroke-width="0" stroke-linecap="butt"/><path d="M228.0064,119.54128l-1.59587,5.3166l-93.95493,-28.20217c-0.65405,-0.52326 -1.4174,-0.93233 -2.26884,-1.18792c-0.22439,-0.06736 -0.44954,-0.12244 -0.67472,-0.16563l1.46645,-4.88546z" fill="#a13f27" stroke="none" stroke-width="0" stroke-linecap="butt"/><path d="M472.2624,359.50962v-378.58895h8.16375v378.58896z" fill="#676767" stroke="#000000" stroke-width="2" stroke-linecap="butt"/><path d="M328.02956,144.37034v-6.59893h91.725v6.59893z" fill="#0dc500" stroke="none" stroke-width="0" stroke-linecap="butt"/><path d="M442.09758,34.35505l-25.46357,21.09889l-29.9825,-21.2084z" fill="#676767" stroke="#000000" stroke-width="0.5" stroke-linecap="round"/><path d="M270.83574,65.97465v-4.39928h61.36997v4.39928z" fill="#0dc500" stroke="none" stroke-width="0" stroke-linecap="butt"/><path d="M172.23273,63.71587v-4.39928h27.71547v4.39928z" fill="#a13f27" stroke="none" stroke-width="0" stroke-linecap="butt"/><path d="M328.61298,192.18582v-6.59892h78.52716v6.59892z" fill="#0dc500" stroke="none" stroke-width="0" stroke-linecap="butt"/><path d="M171.1365,370.1285l-185.21691,-2.59649v-90.01196z" fill="#676767" stroke="#000000" stroke-width="2.5" stroke-linecap="round"/><path d="M411.64746,324.12667v-36.50867h14.97239v36.50867z" fill="#614100" stroke="none" stroke-width="0" stroke-linecap="butt"/><path d="M227.8749,352.18545v-66.25821h13.26126v66.25821z" fill="#614100" stroke="none" stroke-width="0" stroke-linecap="butt"/><path d="M206.37416,312.67089l0.99766,-5.82762l21.89805,9.20731l-0.99766,5.82762z" fill="#614100" stroke="none" stroke-width="0" stroke-linecap="butt"/><path d="M218.89147,316.28612v-3.85077h10.69456v3.85077z" fill="#614100" stroke="none" stroke-width="0" stroke-linecap="butt"/><path d="M110.77091,278.17904v-4.70561h73.2058v4.70561z" fill="#a13f27" stroke="none" stroke-width="0" stroke-linecap="butt"/><path d="M418.49199,294.49033l-21.38913,-20.10578h42.35047z" fill="#614100" stroke="#000000" stroke-width="0.5" stroke-linecap="round"/><path d="M29.3713,255.05745v-5.55094h39.05532c0.30929,0.31312 0.6472,0.48547 1.00113,0.48547c0.09327,0 0.18544,-0.01198 0.27624,-0.03534v5.10081z" fill="#a13f27" stroke="none" stroke-width="0" stroke-linecap="butt"/><path d="M217.24848,244.94409v-5.55095h129.08287c1.02228,0.31312 2.13909,0.48548 3.30887,0.48548c0.30829,0 0.61289,-0.01197 0.91305,-0.03533v5.10081z" fill="#0dc500" stroke="none" stroke-width="0" stroke-linecap="butt"/><path d="M240.25347,322.4081l-0.99766,-5.82762l21.89805,-9.20731l0.99766,5.82762z" data-paper-data="{&quot;index&quot;:null}" fill="#614100" stroke="none" stroke-width="0" stroke-linecap="butt"/><path d="M238.93965,316.81606v-3.85077h10.69456v3.85077z" data-paper-data="{&quot;index&quot;:null}" fill="#614100" stroke="none" stroke-width="0" stroke-linecap="butt"/><path d="M-8.71591,362.78569v-11.00461h488.20057v11.00462z" fill="#0dc500" stroke="none" stroke-width="0" stroke-linecap="butt"/><path d="M442.37776,33.185l-57.00847,-0.18675" fill="none" stroke="#0dc500" stroke-width="3.5" stroke-linecap="round"/><path d="M404.37352,47.59163v42" fill="none" stroke="#0dc500" stroke-width="4.5" stroke-linecap="round"/><path d="M423.37352,70.59162l-1,-25" fill="none" stroke="#0dc500" stroke-width="7" stroke-linecap="round"/><path d="M394.37352,57.59162l1,-17" fill="none" stroke="#0dc500" stroke-width="3.5" stroke-linecap="round"/><path d="M431.37352,57.59162l1,-17" fill="none" stroke="#0dc500" stroke-width="3.5" stroke-linecap="round"/><path d="M442.09758,34.35505l-25.46357,21.09889l-29.9825,-21.2084z" fill="#676767" stroke="#000000" stroke-width="0.5" stroke-linecap="round"/><path d="M442.37776,33.185l-57.00847,-0.18675" fill="none" stroke="#0dc500" stroke-width="3.5" stroke-linecap="round"/><path d="M-0.72659,91.7242v-6.13605h29.35191v6.13605z" fill="#0dc500" stroke="none" stroke-width="0" stroke-linecap="butt"/><path d="M39.94704,132.93238v-5.55094h65.9175v5.55094z" fill="#0dc500" stroke="none" stroke-width="0" stroke-linecap="butt"/><path d="M-6.64196,174.45401v-5.55095h65.9175v5.55095z" fill="#0dc500" stroke="none" stroke-width="0" stroke-linecap="butt"/><path d="M104.12435,174.3498v-5.55095h45.69164v5.55095z" fill="#0dc500" stroke="none" stroke-width="0" stroke-linecap="butt"/><path d="M58.46594,217.19705v-5.55094h107.44071c0.85088,0.31312 1.78046,0.48547 2.75411,0.48547c0.2566,0 0.51012,-0.01198 0.75996,-0.03534v5.10081z" fill="#0dc500" stroke="none" stroke-width="0" stroke-linecap="butt"/><path d="M227.0064,118.54128l-1.59587,5.3166l-93.95493,-28.20217c-0.65405,-0.52326 -1.4174,-0.93233 -2.26884,-1.18792c-0.22439,-0.06736 -0.44954,-0.12244 -0.67472,-0.16563l1.46645,-4.88546z" fill="#0dc500" stroke="none" stroke-width="0" stroke-linecap="butt"/><path d="M171.23273,62.71587v-4.39928h27.71547v4.39928z" fill="#0dc500" stroke="none" stroke-width="0" stroke-linecap="butt"/><path d="M109.77091,277.17904v-4.70561h73.2058v4.70561z" fill="#0dc500" stroke="none" stroke-width="0" stroke-linecap="butt"/><path d="M28.3713,254.05745v-5.55094h39.05532c0.30929,0.31312 0.6472,0.48547 1.00113,0.48547c0.09327,0 0.18544,-0.01198 0.27624,-0.03534v5.10081z" fill="#0dc500" stroke="none" stroke-width="0" stroke-linecap="butt"/><path d="M0.27339,94.7242v-6.13605h29.35191v6.13605z" fill="#a13f27" stroke="none" stroke-width="0" stroke-linecap="butt"/><path d="M40.94704,135.93238v-5.55094h65.9175v5.55094z" fill="#a13f27" stroke="none" stroke-width="0" stroke-linecap="butt"/><path d="M-5.64196,177.45401v-5.55095h65.9175v5.55095z" fill="#a13f27" stroke="none" stroke-width="0" stroke-linecap="butt"/><path d="M105.12435,177.3498v-5.55095h45.69164v5.55095z" fill="#a13f27" stroke="none" stroke-width="0" stroke-linecap="butt"/><path d="M59.46594,220.19705v-5.55094h107.44071c0.85088,0.31312 1.78046,0.48547 2.75411,0.48547c0.2566,0 0.51012,-0.01198 0.75996,-0.03534v5.10081z" fill="#a13f27" stroke="none" stroke-width="0" stroke-linecap="butt"/><path d="M228.0064,121.54128l-1.59587,5.3166l-93.95493,-28.20217c-0.65405,-0.52326 -1.4174,-0.93233 -2.26884,-1.18792c-0.22439,-0.06736 -0.44954,-0.12244 -0.67472,-0.16563l1.46645,-4.88546z" fill="#a13f27" stroke="none" stroke-width="0" stroke-linecap="butt"/><path d="M172.23273,65.71587v-4.39928h27.71547v4.39928z" fill="#a13f27" stroke="none" stroke-width="0" stroke-linecap="butt"/><path d="M110.77091,280.17904v-4.70561h73.2058v4.70561z" fill="#a13f27" stroke="none" stroke-width="0" stroke-linecap="butt"/><path d="M29.3713,257.05746v-5.55094h39.05532c0.30929,0.31312 0.6472,0.48547 1.00113,0.48547c0.09327,0 0.18544,-0.01198 0.27624,-0.03534v5.10081z" fill="#a13f27" stroke="none" stroke-width="0" stroke-linecap="butt"/><path d="M-0.72659,93.7242v-6.13605h29.35191v6.13605z" fill="#a13f27" stroke="none" stroke-width="0" stroke-linecap="butt"/><path d="M39.94704,134.93238v-5.55094h65.9175v5.55094z" fill="#a13f27" stroke="none" stroke-width="0" stroke-linecap="butt"/><path d="M-6.64196,176.45401v-5.55095h65.9175v5.55095z" fill="#a13f27" stroke="none" stroke-width="0" stroke-linecap="butt"/><path d="M104.12435,176.3498v-5.55095h45.69164v5.55095z" fill="#a13f27" stroke="none" stroke-width="0" stroke-linecap="butt"/><path d="M58.46594,219.19705v-5.55094h107.44071c0.85088,0.31312 1.78046,0.48547 2.75411,0.48547c0.2566,0 0.51012,-0.01198 0.75996,-0.03534v5.10081z" fill="#a13f27" stroke="none" stroke-width="0" stroke-linecap="butt"/><path d="M227.0064,120.54128l-1.59587,5.3166l-93.95493,-28.20217c-0.65405,-0.52326 -1.4174,-0.93233 -2.26884,-1.18792c-0.22439,-0.06736 -0.44954,-0.12244 -0.67472,-0.16563l1.46645,-4.88546z" fill="#a13f27" stroke="none" stroke-width="0" stroke-linecap="butt"/><path d="M171.23273,64.71587v-4.39928h27.71547v4.39928z" fill="#a13f27" stroke="none" stroke-width="0" stroke-linecap="butt"/><path d="M109.77091,279.17904v-4.70561h73.2058v4.70561z" fill="#a13f27" stroke="none" stroke-width="0" stroke-linecap="butt"/><path d="M28.3713,256.05746v-5.55094h39.05532c0.30929,0.31312 0.6472,0.48547 1.00113,0.48547c0.09327,0 0.18544,-0.01198 0.27624,-0.03534v5.10081z" fill="#a13f27" stroke="none" stroke-width="0" stroke-linecap="butt"/><path d="M330.4629,140.2179l2.74748,5.68308l-111.8361,43.60216c-1.04067,0.02473 -2.09358,0.22552 -3.10707,0.62065c-0.2671,0.10414 -0.52508,0.21928 -0.77357,0.34459l-2.52469,-5.22222z" fill="#a13f27" stroke="none" stroke-width="0" stroke-linecap="butt"/><path d="M328.02956,146.37034v-6.59893h91.725v6.59893z" fill="#a13f27" stroke="none" stroke-width="0" stroke-linecap="butt"/><path d="M270.83574,67.97465v-4.39928h61.36997v4.39928z" fill="#a13f27" stroke="none" stroke-width="0" stroke-linecap="butt"/><path d="M328.61298,194.18582v-6.59892h78.52716v6.59892z" fill="#a13f27" stroke="none" stroke-width="0" stroke-linecap="butt"/><path d="M217.24848,246.94409v-5.55095h129.08287c1.02228,0.31312 2.13909,0.48548 3.30887,0.48548c0.30829,0 0.61289,-0.01197 0.91305,-0.03533v5.10081z" fill="#a13f27" stroke="none" stroke-width="0" stroke-linecap="butt"/><path d="M314.55909,352.96676l6.32314,-40.47779h29.93715l5.7483,41.02618z" fill="#0dc500" stroke="#000000" stroke-width="0" stroke-linecap="butt"/><path d="M-0.7376,362.50962v-371.33013h8.16375v371.33014z" fill="#676767" stroke="#000000" stroke-width="2" stroke-linecap="butt"/><path d="M-4.71591,362.78569v-11.00461h488.20057v11.00462z" fill="#0dc500" stroke="none" stroke-width="0" stroke-linecap="butt"/><path d="M258.15258,280.37068c0,2.03997 -1.26037,3.2863 -3.41227,4.41543c-1.24522,0.65339 0.36234,5.80712 -0.23321,6.8069c-1.27345,2.13781 -0.93005,1.06413 -1.48661,3.12632c-0.39466,1.46229 -2.62979,1.99079 -3.87153,3.13796c-1.05316,0.97296 -3.00904,1.41885 -5.16164,1.03946c-1.57974,-0.27843 -3.26542,-1.38602 -4.77801,-1.11416c-0.92738,0.16668 -2.19458,2.27903 -4.04239,2.6987c-2.02473,0.45984 -4.63506,-0.77806 -5.57368,-0.77806c-1.88188,0 -3.28652,-0.67601 -4.28551,-2.02201c-0.99898,-1.34599 -1.59232,-3.36198 -2.9632,-3.81875c-2.63912,-0.87934 -5.19572,0.63847 -7.37369,0.38793c-1.43962,-0.1656 -2.7138,-1.88625 -3.73703,-2.78323c-1.42388,-1.2482 -2.62471,-2.10955 -2.04864,-4.81677c0.24749,-1.16308 2.40925,-4.02654 2.40925,-5.16809c0,-2.13732 -2.56298,-3.04316 -3.44583,-4.9899c-0.59847,-1.31968 0.17594,-3.7185 0.72919,-4.98849c0.56367,-1.29392 2.0486,-3.0769 4.02185,-3.30493c1.48354,-0.17143 3.36393,1.26099 4.6652,0.41381c1.80182,-1.17307 0.86092,-3.08636 1.43233,-4.63904c0.75838,-2.0607 2.91093,-3.69779 5.27383,-4.1929c0.95678,-0.20047 3.15554,-0.3626 4.88762,0.74991c2.14705,1.37905 3.87524,4.12017 5.15907,4.12017c1.3961,0 2.07281,-2.20148 4.34646,-2.89889c2.10653,-0.64614 5.81998,0.19557 6.9954,0.48287c1.69875,0.41522 3.99389,1.24723 5.31293,3.42338c1.11947,1.84692 -0.08688,4.77277 0.8855,5.42226c2.64005,1.76339 3.75946,1.36139 5.03591,2.53761c1.2126,1.11739 1.2587,3.48956 1.2587,6.7525z" fill="#83e87c" stroke="#03c300" stroke-width="3" stroke-linecap="butt"/><path d="M268.62446,321.67242c-0.99805,0.48784 -1.90922,0.16925 -2.97624,-0.61355c-0.61745,-0.45297 -2.75447,1.56598 -3.38603,1.5137c-1.35045,-0.1118 -0.74303,-0.20055 -1.88505,0.0203c-0.8098,0.15661 -1.60288,-0.81055 -2.46108,-1.14373c-0.72787,-0.28258 -1.41375,-1.13287 -1.7429,-2.27675c-0.24156,-0.83947 -0.10278,-1.92905 -0.59751,-2.60407c-0.30332,-0.41386 -1.63982,-0.52869 -2.28703,-1.33237c-0.70917,-0.88063 -0.72776,-2.45376 -0.95221,-2.91298c-0.45003,-0.9207 -0.4552,-1.76958 -0.03557,-2.58022c0.41963,-0.81063 1.26406,-1.58302 1.1597,-2.36295c-0.2009,-1.50147 -1.55486,-2.38932 -1.95313,-3.5148c-0.26325,-0.74393 0.27387,-1.7788 0.46802,-2.49391c0.27018,-0.99512 0.40442,-1.78861 1.86669,-2.15417c0.62822,-0.15705 2.54612,0.21582 3.10462,-0.05717c1.04568,-0.51112 0.87595,-1.98167 1.61727,-2.87914c0.50253,-0.60839 1.86134,-0.80316 2.61499,-0.83618c0.76784,-0.03365 1.99527,0.26647 2.57871,1.17735c0.43865,0.68483 0.18751,1.94735 0.91317,2.3814c1.0048,0.60101 1.71588,-0.31686 2.61217,-0.40861c1.18955,-0.12176 2.50525,0.53988 3.31255,1.57753c0.32688,0.42016 0.93201,1.45713 0.80193,2.57059c-0.16125,1.38022 -1.08907,2.88125 -0.78205,3.50936c0.33386,0.68304 1.57276,0.48766 2.45768,1.43326c0.81988,0.8761 1.2961,2.89418 1.43662,3.53796c0.20309,0.9304 0.34489,2.25227 -0.40436,3.418c-0.63589,0.98937 -2.35584,1.09885 -2.44107,1.7299c-0.2314,1.71333 0.23297,2.16487 -0.03725,3.07065c-0.2567,0.86047 -1.40626,1.4503 -3.00265,2.2306z" fill="#83e87c" stroke="#03c300" stroke-width="2" stroke-linecap="butt"/><path d="M204.93876,295.20682c1.11063,-0.02421 1.80413,0.64719 2.44441,1.80535c0.37051,0.67018 3.1573,-0.2662 3.70869,0.04617c1.17902,0.66793 0.59039,0.49372 1.71973,0.77225c0.80081,0.19751 1.11507,1.40812 1.75437,2.07055c0.54221,0.56183 0.80819,1.62139 0.62719,2.79784c-0.13283,0.86337 -0.71583,1.79427 -0.54987,2.61454c0.10176,0.50292 1.26684,1.16775 1.51725,2.16879c0.27439,1.09688 -0.36859,2.53273 -0.35745,3.04375c0.02234,1.02456 -0.32903,1.79732 -1.04999,2.35719c-0.72095,0.55985 -1.81148,0.90682 -2.04389,1.6586c-0.44742,1.44727 0.40928,2.82116 0.29873,4.00989c-0.07307,0.78574 -0.99473,1.49988 -1.47093,2.06761c-0.66266,0.79003 -1.11736,1.45402 -2.5981,1.17252c-0.63616,-0.12094 -2.22079,-1.26388 -2.84229,-1.25033c-1.16363,0.02537 -1.62638,1.4315 -2.67578,1.93526c-0.71138,0.34149 -2.02657,-0.05165 -2.72457,-0.33778c-0.71114,-0.29152 -1.69949,-1.0788 -1.84706,-2.15041c-0.11094,-0.80566 0.6466,-1.84641 0.16992,-2.54481c-0.66005,-0.96705 -1.69055,-0.43208 -2.54266,-0.72475c-1.13092,-0.38842 -2.04777,-1.54092 -2.34536,-2.82149c-0.1205,-0.51852 -0.23486,-1.71369 0.35026,-2.66989c0.72532,-1.1853 2.19717,-2.15873 2.18193,-2.85769c-0.01657,-0.76008 -1.22317,-1.10238 -1.62985,-2.33196c-0.37679,-1.1392 0.03739,-3.17092 0.17986,-3.81428c0.2059,-0.92979 0.63163,-2.18922 1.80075,-2.93318c0.99224,-0.6314 2.5995,-0.00936 2.94156,-0.54646c0.92872,-1.45827 0.69657,-2.06294 1.32179,-2.77184c0.59395,-0.67344 1.8849,-0.7267 3.66136,-0.76543z" fill="#83e87c" stroke="#03c300" stroke-width="2" stroke-linecap="butt"/><path d="M384.90361,277.31253c-0.37985,-2.69769 1.05481,-4.58054 3.69027,-6.47441c1.52504,-1.09591 -1.56048,-7.61196 -0.95907,-9.04498c1.28596,-3.0642 1.03178,-1.5804 1.38379,-4.4111c0.24961,-2.00725 3.10699,-3.12233 4.53548,-4.87059c1.21155,-1.48276 3.71502,-2.4366 6.63229,-2.33571c2.14092,0.07404 4.57633,1.22486 6.52597,0.5837c1.19535,-0.39311 2.47779,-3.42247 4.84322,-4.32151c2.59192,-0.98512 6.27436,0.16586 7.5156,-0.00891c2.48862,-0.35041 4.47202,0.282 6.04373,1.87596c1.5717,1.59395 2.73172,4.14944 4.62965,4.49822c3.65374,0.67144 6.75202,-1.81178 9.67885,-1.88601c1.93461,-0.04907 3.94,1.98908 5.46016,2.98473c2.11538,1.38551 3.86376,2.30097 3.60605,5.98831c-0.11072,1.58416 -2.43628,5.77338 -2.22372,7.28298c0.39798,2.82643 3.95598,3.54708 5.48596,5.9571c1.03716,1.63373 0.45973,4.95017 -0.03542,6.73264c-0.50448,1.81605 -2.13617,4.4504 -4.70317,5.11938c-1.92994,0.50295 -4.68332,-1.04118 -6.24639,0.32145c-2.16433,1.88679 -0.5638,4.24177 -1.03034,6.40145c-0.61918,2.86632 -3.16092,5.43205 -6.19347,6.52677c-1.22793,0.44327 -4.10542,1.06708 -6.6031,-0.0816c-3.09608,-1.42388 -5.89188,-4.727 -7.58963,-4.48794c-1.84622,0.25996 -2.33119,3.29724 -5.20805,4.64287c-2.66539,1.24671 -7.73285,0.82507 -9.34074,0.66401c-2.32376,-0.23278 -5.51383,-0.90568 -7.66335,-3.53785c-1.82431,-2.23395 -0.77382,-6.32777 -2.18065,-7.0056c-3.81959,-1.84035 -5.22506,-1.10031 -7.13208,-2.41808c-1.81162,-1.25186 -2.31429,-4.38028 -2.92186,-8.69524z" fill="#83e87c" stroke="#03c300" stroke-width="3" stroke-linecap="butt"/><path d="M411.52672,327.86915v-8.05934h24.73384v8.05934z" fill="#614100" stroke="none" stroke-width="0" stroke-linecap="butt"/><path d="M424.58841,353.43675v-26.95711h11.67215v26.95711z" fill="#614100" stroke="none" stroke-width="0" stroke-linecap="butt"/><path d="M315.39045,355.15193l6.11398,-41.02618h28.9469l5.55816,41.582z" fill="#a13f27" stroke="#000000" stroke-width="0" stroke-linecap="butt"/><path d="M446.37497,354.05689v-7.7065h24.53499v7.7065z" fill="#66fff4" stroke="none" stroke-width="0" stroke-linecap="butt"/><path d="M-6.44851,364.9003v-11.00461h488.20057v11.00462z" fill="#0dc500" stroke="none" stroke-width="0" stroke-linecap="butt"/></g></g></svg>