<svg version="1.1" xmlns="http://www.w3.org/2000/svg" xmlns:xlink="http://www.w3.org/1999/xlink" width="481.22226" height="362.38805" viewBox="0,0,481.22226,362.38805"><g transform="translate(1.73764,-0.39758)"><g data-paper-data="{&quot;isPaintingLayer&quot;:true}" fill="#000000" fill-rule="nonzero" stroke-linecap="butt" stroke-linejoin="miter" stroke-miterlimit="10" stroke-dasharray="" stroke-dashoffset="0" style="mix-blend-mode: normal"><path d="M-1.73764,360.50955v-360.11197h8.16375v360.11198z" stroke="none" stroke-width="0"/><path d="M1.28405,362.78562v-11.00461h478.20057v11.00462z" stroke="none" stroke-width="0"/><path d="M47.85253,145.50786v-8.24771h97.94156v8.24771z" stroke="none" stroke-width="0"/><path d="M0.27338,94.83582v-8.24771h56.70301v8.24771z" stroke="none" stroke-width="0"/><path d="M2.33531,202.05606v-8.24771h97.94156v8.24771z" stroke="none" stroke-width="0"/><path d="M148.57734,201.90124v-8.24771h130.93239v8.24771z" stroke="none" stroke-width="0"/><path d="M74.65759,256.85195v-8.24771h145.75353c1.1543,0.46524 2.41535,0.72133 3.73621,0.72133c0.3481,0 0.69204,-0.01779 1.03096,-0.0525v7.57888z" stroke="#000000" stroke-width="0.5"/><path d="M321.65759,318.85195v-8.24771h145.75353c1.1543,0.46524 2.41535,0.72133 3.73621,0.72133c0.3481,0 0.69204,-0.01779 1.03096,-0.0525v7.57888z" stroke="#000000" stroke-width="0.5"/><path d="M469.87631,200.95511l3.08853,7.11399l-125.7185,54.58053c-1.16985,0.03096 -2.35346,0.2823 -3.49275,0.77693c-0.30025,0.13036 -0.59026,0.27449 -0.86959,0.43135l-2.83808,-6.5371z" stroke="#000000" stroke-width="0.5"/><path d="M345.81654,170.72527l-3.70356,7.36942l-130.23237,-65.44939c-0.82246,-0.93403 -1.83424,-1.7291 -3.01444,-2.32223c-0.31103,-0.15631 -0.62633,-0.29486 -0.94475,-0.41603l3.40323,-6.77182z" stroke="#000000" stroke-width="0.5"/></g></g></svg>